# xmcd
#
# Track frame offsets:
#   150
#   14653
#   32090
#   47118
#   63305
#   80302
#   95294
#   109879
#   125717
#   140007
#   157962
#   173966
#   189975
#   203170
#   219872
#   237279
#   255578
#   281282
#
# Disc length: 3950 seconds
#
# Revision: 0
# Processed by: cddbd v1.5.1PL0 Copyright (c) Steve Scherf et al.
# Submitted via: Media_Universe 3.0
#
DISCID=f80f6c12
DTITLE=Montgomery Gentry - Tattoos and Scars and Mixed
DYEAR=1900
DGENRE=Country
TTITLE0=Hillbilly Shoes
TTITLE1=Trying To Survive
TTITLE2=Lonely And Gone
TTITLE3=Self Made Man
TTITLE4=Daddy Wont Sell The Farm
TTITLE5=If A Broken Heart Could Kill
TTITLE6=Ive Loved A Lot More Than Ive Hurt
TTITLE7=Didnt Your Mama Tell Ya
TTITLE8=Trouble Is
TTITLE9=Tattoos And Scars
TTITLE10=All Night Long
TTITLE11=All Night Long
TTITLE12=(I'm A) Ramblin Man
TTITLE13=Didnt I
TTITLE14=Just Got Paid
TTITLE15=Merry Christmas From The Family
TTITLE16=Tried And True
TTITLE17=Yankee Grey
EXTD=
EXTT0=
EXTT1=
EXTT2=
EXTT3=
EXTT4=
EXTT5=
EXTT6=
EXTT7=
EXTT8=
EXTT9=
EXTT10=
EXTT11=
EXTT12=
EXTT13=
EXTT14=
EXTT15=
EXTT16=
EXTT17=
PLAYORDER=
